<?xml version="1.0" standalone="no"?>
<!DOCTYPE svg PUBLIC "-//W3C//DTD SVG 20010904//EN"
 "http://www.w3.org/TR/2001/REC-SVG-20010904/DTD/svg10.dtd">
<svg version="1.0" xmlns="http://www.w3.org/2000/svg"
 width="100.000000pt" height="100.000000pt" viewBox="0 0 100.000000 100.000000"
 preserveAspectRatio="xMidYMid meet">

<g transform="translate(0.000000,100.000000) scale(0.100000,-0.100000)"
fill="#000000" stroke="none">
<path d="M84 905 c-67 -70 -89 -132 -81 -224 11 -124 37 -173 161 -296 135
-135 312 -278 386 -314 49 -23 67 -26 160 -26 89 0 112 3 151 23 63 30 129
111 136 164 6 39 4 42 -68 110 -81 77 -128 103 -167 93 -14 -3 -51 -33 -83
-66 -32 -33 -65 -59 -76 -59 -11 0 -39 14 -61 30 -45 32 -66 37 -78 18 -10
-16 69 -85 107 -93 51 -11 86 4 136 59 62 67 67 70 100 52 42 -22 143 -120
143 -138 0 -9 -8 -25 -17 -37 l-18 -21 -64 55 c-65 57 -84 63 -89 29 -1 -13
17 -35 57 -69 33 -27 57 -54 54 -58 -14 -22 -92 -47 -149 -47 -83 0 -158 24
-229 75 -76 54 -297 247 -349 305 -79 88 -115 227 -82 315 10 25 20 45 23 45
2 0 31 -23 63 -51 38 -32 65 -49 75 -46 28 11 16 35 -45 88 -57 49 -59 53 -44
71 28 30 59 21 128 -38 80 -68 83 -86 25 -155 -69 -82 -71 -135 -9 -200 25
-27 43 -37 54 -33 25 9 19 36 -14 67 -44 42 -40 77 14 141 42 49 51 72 48 123
-1 14 -32 48 -82 92 -72 64 -84 71 -122 71 -38 0 -47 -5 -94 -55z"/>
<path d="M604 925 c-9 -23 5 -35 39 -35 41 -1 114 -33 150 -68 39 -36 59 -76
72 -142 9 -44 16 -55 31 -55 27 0 30 43 8 113 -24 75 -106 161 -178 185 -62
21 -115 22 -122 2z"/>
<path d="M597 804 c-19 -20 -6 -42 30 -49 42 -8 103 -63 103 -93 0 -33 11 -52
30 -52 25 0 31 22 18 66 -14 51 -34 80 -72 103 -35 22 -98 36 -109 25z"/>
<path d="M392 441 c-20 -12 -10 -46 14 -49 25 -4 40 24 23 44 -13 16 -19 17
-37 5z"/>
</g>
</svg>
