<?xml version="1.0" standalone="no"?>
<!DOCTYPE svg PUBLIC "-//W3C//DTD SVG 20010904//EN"
 "http://www.w3.org/TR/2001/REC-SVG-20010904/DTD/svg10.dtd">
<svg version="1.0" xmlns="http://www.w3.org/2000/svg"
 width="100.000000pt" height="100.000000pt" viewBox="0 0 100.000000 100.000000"
 preserveAspectRatio="xMidYMid meet">

<g transform="translate(0.000000,100.000000) scale(0.100000,-0.100000)"
fill="#000000" stroke="none">
<path d="M109 763 c-11 -12 -15 -71 -17 -257 -3 -240 0 -286 18 -286 6 0 11
102 12 263 l3 262 375 0 375 0 3 -262 c1 -161 6 -263 12 -263 18 0 21 46 18
286 -2 186 -6 245 -17 257 -12 15 -52 17 -391 17 -339 0 -379 -2 -391 -17z"/>
<path d="M197 684 c-17 -18 -3 -24 54 -24 44 0 60 3 57 13 -5 13 -99 23 -111
11z"/>
<path d="M757 684 c-15 -15 -6 -24 24 -24 20 0 29 4 27 13 -5 14 -40 21 -51
11z"/>
<path d="M436 649 c-27 -4 -53 -12 -58 -17 -17 -17 9 -23 53 -13 46 10 59 7
59 -14 0 -16 -22 -25 -61 -25 -38 0 -99 -25 -99 -41 0 -7 8 -9 23 -5 51 15
120 26 128 20 5 -3 9 -14 9 -24 0 -14 -9 -21 -37 -25 -60 -9 -112 -25 -118
-35 -13 -21 6 -30 33 -16 15 8 48 16 72 18 39 3 45 0 48 -18 3 -18 -3 -22 -45
-28 -54 -7 -100 -33 -86 -47 6 -6 21 -4 39 6 16 8 44 15 62 15 30 0 32 -2 32
-35 0 -19 5 -35 10 -35 6 0 10 16 10 35 0 33 2 35 33 35 17 0 45 -7 61 -15 18
-10 33 -12 39 -6 14 14 -32 40 -86 47 -42 6 -48 10 -45 28 3 18 9 21 48 18 24
-2 57 -10 72 -18 27 -14 46 -5 33 16 -6 10 -58 26 -117 35 -29 4 -38 11 -38
25 0 10 4 21 9 24 8 6 77 -5 129 -20 14 -4 22 -2 22 5 0 16 -61 41 -99 41 -39
0 -61 9 -61 25 0 22 13 24 60 14 28 -7 47 -6 53 0 23 23 -106 44 -187 30z"/>
<path d="M190 610 c0 -5 14 -10 30 -10 17 0 30 5 30 10 0 6 -13 10 -30 10 -16
0 -30 -4 -30 -10z"/>
<path d="M394 336 c-10 -8 -16 -17 -13 -21 10 -9 72 9 77 23 5 17 -40 15 -64
-2z"/>
<path d="M542 338 c5 -14 67 -32 77 -23 3 4 -3 13 -13 21 -24 17 -69 19 -64 2z"/>
<path d="M490 295 c0 -8 5 -15 10 -15 6 0 10 7 10 15 0 8 -4 15 -10 15 -5 0
-10 -7 -10 -15z"/>
<path d="M33 174 c-3 -8 3 -28 14 -42 l20 -27 431 -3 430 -2 22 27 c43 54 33
58 -168 61 -157 2 -182 0 -182 -13 0 -13 24 -15 165 -15 99 0 165 -4 165 -10
0 -26 -52 -30 -430 -30 -378 0 -430 4 -430 30 0 6 66 10 165 10 140 0 165 2
165 15 0 23 -358 22 -367 -1z"/>
</g>
</svg>
