<?xml version="1.0" standalone="no"?>
<!DOCTYPE svg PUBLIC "-//W3C//DTD SVG 20010904//EN"
 "http://www.w3.org/TR/2001/REC-SVG-20010904/DTD/svg10.dtd">
<svg version="1.0" xmlns="http://www.w3.org/2000/svg"
 width="80.000000pt" height="80.000000pt" viewBox="0 0 80.000000 80.000000"
 preserveAspectRatio="xMidYMid meet">

<g transform="translate(0.000000,80.000000) scale(0.100000,-0.100000)"
fill="#000000" stroke="none">
<path d="M308 708 c-46 -12 -57 -41 -65 -168 -5 -80 -3 -88 26 -147 17 -34 35
-65 41 -68 5 -3 10 -15 10 -25 0 -13 -20 -28 -71 -51 -83 -38 -109 -67 -109
-120 l0 -39 260 0 260 0 0 39 c0 53 -26 82 -109 120 -51 23 -71 38 -71 51 0
10 4 21 10 25 5 3 23 35 41 70 30 62 32 69 26 148 -3 45 -11 98 -17 118 -9 32
-16 38 -55 48 -52 13 -126 13 -177 -1z m197 -28 c7 -6 16 -27 20 -48 3 -20 9
-47 12 -59 l5 -23 -142 0 -142 0 5 23 c3 12 9 39 12 59 8 42 19 54 55 61 39 8
160 -1 175 -13z m-232 -170 c-3 -11 -7 -20 -9 -20 -2 0 -4 9 -4 20 0 11 4 20
9 20 5 0 7 -9 4 -20z m231 4 c3 -9 6 -24 6 -35 0 -12 5 -16 15 -13 10 4 15 0
15 -10 0 -9 -6 -19 -14 -22 -8 -3 -17 -20 -20 -38 -12 -64 -84 -106 -140 -82
-39 16 -76 60 -76 91 0 13 -7 25 -15 29 -8 3 -15 13 -15 22 0 10 5 14 15 10
10 -3 15 1 15 13 0 48 7 51 110 51 80 0 99 -3 104 -16z m36 -4 c0 -11 -2 -20
-4 -20 -2 0 -6 9 -9 20 -3 11 -1 20 4 20 5 0 9 -9 9 -20z m-140 -224 c14 0 33
4 43 8 14 7 17 3 17 -19 0 -27 -48 -115 -62 -115 -14 0 -58 87 -58 114 0 23 3
27 18 20 9 -4 28 -8 42 -8z m-73 -53 c9 -26 65 -103 74 -103 4 0 24 27 45 60
20 33 42 60 48 60 20 -1 101 -41 124 -62 13 -13 22 -33 22 -50 l0 -28 -240 0
-240 0 0 28 c0 34 29 63 90 91 55 25 69 26 77 4z"/>
<path d="M390 645 c0 -8 -7 -15 -15 -15 -8 0 -15 -4 -15 -10 0 -5 7 -10 15
-10 8 0 15 -7 15 -15 0 -8 5 -15 10 -15 6 0 10 7 10 15 0 8 7 15 15 15 8 0 15
5 15 10 0 6 -7 10 -15 10 -8 0 -15 7 -15 15 0 8 -4 15 -10 15 -5 0 -10 -7 -10
-15z"/>
<path d="M330 455 c0 -8 7 -15 15 -15 8 0 15 7 15 15 0 8 -7 15 -15 15 -8 0
-15 -7 -15 -15z"/>
<path d="M440 455 c0 -8 7 -15 15 -15 8 0 15 7 15 15 0 8 -7 15 -15 15 -8 0
-15 -7 -15 -15z"/>
<path d="M180 140 c0 -5 5 -10 10 -10 6 0 10 5 10 10 0 6 -4 10 -10 10 -5 0
-10 -4 -10 -10z"/>
<path d="M220 140 c0 -5 5 -10 10 -10 6 0 10 5 10 10 0 6 -4 10 -10 10 -5 0
-10 -4 -10 -10z"/>
<path d="M260 140 c0 -5 5 -10 10 -10 6 0 10 5 10 10 0 6 -4 10 -10 10 -5 0
-10 -4 -10 -10z"/>
<path d="M300 140 c0 -5 5 -10 10 -10 6 0 10 5 10 10 0 6 -4 10 -10 10 -5 0
-10 -4 -10 -10z"/>
<path d="M340 140 c0 -5 5 -10 10 -10 6 0 10 5 10 10 0 6 -4 10 -10 10 -5 0
-10 -4 -10 -10z"/>
<path d="M440 140 c0 -5 5 -10 10 -10 6 0 10 5 10 10 0 6 -4 10 -10 10 -5 0
-10 -4 -10 -10z"/>
<path d="M480 140 c0 -5 5 -10 10 -10 6 0 10 5 10 10 0 6 -4 10 -10 10 -5 0
-10 -4 -10 -10z"/>
<path d="M520 140 c0 -5 5 -10 10 -10 6 0 10 5 10 10 0 6 -4 10 -10 10 -5 0
-10 -4 -10 -10z"/>
<path d="M560 140 c0 -5 5 -10 10 -10 6 0 10 5 10 10 0 6 -4 10 -10 10 -5 0
-10 -4 -10 -10z"/>
<path d="M600 140 c0 -5 5 -10 10 -10 6 0 10 5 10 10 0 6 -4 10 -10 10 -5 0
-10 -4 -10 -10z"/>
</g>
</svg>
