<?xml version="1.0" standalone="no"?>
<!DOCTYPE svg PUBLIC "-//W3C//DTD SVG 20010904//EN"
 "http://www.w3.org/TR/2001/REC-SVG-20010904/DTD/svg10.dtd">
<svg version="1.0" xmlns="http://www.w3.org/2000/svg"
 width="100.000000pt" height="100.000000pt" viewBox="0 0 100.000000 100.000000"
 preserveAspectRatio="xMidYMid meet">

<g transform="translate(0.000000,100.000000) scale(0.100000,-0.100000)"
fill="#000000" stroke="none">
<path d="M303 762 c-101 -53 -183 -100 -183 -105 0 -5 9 -5 20 -2 20 6 20 2
20 -239 0 -209 2 -247 16 -260 13 -14 57 -16 324 -16 267 0 311 2 324 16 14
13 16 51 16 260 0 241 0 245 20 239 11 -3 20 -2 20 3 0 10 -362 202 -381 202
-8 -1 -96 -44 -196 -98z m365 -7 l152 -80 -2 -255 -3 -255 -315 0 -315 0 -3
255 -2 255 152 82 c84 44 160 80 169 80 8 -1 84 -38 167 -82z"/>
<path d="M370 730 c-63 -33 -123 -70 -133 -81 -15 -19 -17 -45 -17 -219 0
-178 2 -198 18 -213 16 -15 50 -17 264 -17 299 0 280 -10 275 141 l-3 104 -2
-106 c-1 -66 -6 -109 -14 -117 -17 -17 -499 -17 -516 0 -17 17 -17 398 1 420
6 9 66 44 131 79 104 54 122 61 145 52 55 -22 65 -23 31 -4 -19 11 -42 20 -50
20 -8 0 -67 -26 -130 -59z"/>
<path d="M600 736 c0 -2 7 -7 16 -10 8 -3 12 -2 9 4 -6 10 -25 14 -25 6z"/>
<path d="M380 450 l0 -140 35 0 35 0 0 55 0 55 50 0 50 0 0 -55 0 -55 35 0 35
0 0 140 0 140 -35 0 -35 0 0 -50 0 -50 -50 0 -50 0 0 50 0 50 -35 0 -35 0 0
-140z m60 80 l0 -50 60 0 60 0 0 50 c0 47 2 50 25 50 l25 0 0 -130 0 -130 -25
0 c-24 0 -25 3 -25 55 l0 55 -60 0 -60 0 0 -55 c0 -52 -1 -55 -25 -55 l-25 0
0 130 0 130 25 0 c23 0 25 -3 25 -50z"/>
</g>
</svg>
