<?xml version="1.0" standalone="no"?>
<!DOCTYPE svg PUBLIC "-//W3C//DTD SVG 20010904//EN"
 "http://www.w3.org/TR/2001/REC-SVG-20010904/DTD/svg10.dtd">
<svg version="1.0" xmlns="http://www.w3.org/2000/svg"
 width="100.000000pt" height="100.000000pt" viewBox="0 0 100.000000 100.000000"
 preserveAspectRatio="xMidYMid meet">

<g transform="translate(0.000000,100.000000) scale(0.100000,-0.100000)"
fill="#000000" stroke="none">
<path d="M96 954 c-9 -24 -7 -897 2 -912 7 -9 80 -12 333 -10 l324 3 3 105 3
104 79 82 c44 45 80 86 80 91 0 5 -7 19 -16 31 -22 32 -58 28 -104 -14 l-40
-36 0 196 c0 188 -1 199 -24 244 -29 58 -58 85 -116 111 -41 19 -65 21 -281
21 -207 0 -238 -2 -243 -16z m483 -59 c12 -31 21 -66 21 -78 0 -36 17 -46 55
-34 18 5 45 7 59 3 l26 -6 0 -203 0 -203 -74 -73 -75 -74 -32 27 c-17 15 -38
25 -46 22 -8 -4 -44 -6 -79 -6 -36 0 -64 -4 -64 -10 0 -5 23 -10 50 -10 46 0
50 -2 50 -24 0 -46 79 -116 130 -116 12 0 47 24 81 57 l59 56 0 -87 0 -86
-312 2 -313 3 -3 435 c-1 239 0 441 3 448 3 9 58 12 224 12 l220 0 20 -55z
m49 31 c39 -20 103 -94 102 -118 0 -2 -24 -4 -53 -4 l-53 -2 -11 47 c-6 25
-14 56 -18 69 -9 26 -4 27 33 8z m260 -500 c5 -27 -264 -296 -295 -296 -28 0
-103 66 -103 90 0 38 25 42 66 10 l38 -31 125 126 c127 126 161 147 169 101z"/>
<path d="M387 894 c-4 -4 -7 -22 -7 -40 0 -18 -6 -34 -14 -37 -8 -3 -16 -18
-18 -33 -2 -22 -10 -30 -35 -36 -98 -25 -97 -165 1 -198 27 -9 42 -8 71 4 27
12 42 13 56 5 11 -5 29 -7 41 -3 29 9 106 82 125 117 14 27 13 32 -5 56 -21
29 -56 38 -78 21 -12 -10 -14 -7 -14 18 0 18 -8 39 -19 49 -11 10 -21 32 -23
48 -3 26 -7 30 -38 33 -20 2 -39 0 -43 -4z m63 -44 c0 -19 7 -34 20 -42 33
-21 23 -28 -40 -28 -57 0 -78 11 -45 24 9 3 15 19 15 41 0 31 3 35 25 35 21 0
25 -5 25 -30z m40 -100 c0 -5 -24 -10 -54 -10 -30 0 -58 5 -61 10 -4 6 17 10
54 10 34 0 61 -4 61 -10z m94 -26 c21 -21 20 -28 -8 -61 l-25 -28 -27 27 -28
27 24 26 c27 29 42 31 64 9z m-234 1 c0 -5 -59 -115 -67 -125 -8 -9 -23 26
-23 53 0 33 40 77 70 77 11 0 20 -2 20 -5z m5 -72 c-39 -71 -55 -94 -55 -77 0
18 71 144 82 144 5 0 -7 -30 -27 -67z m125 58 c0 -5 -7 -14 -16 -22 -13 -10
-17 -10 -25 2 -14 23 -11 29 16 29 14 0 25 -4 25 -9z m-50 -57 c0 -31 -22 -64
-50 -79 -18 -9 -35 -14 -38 -10 -3 3 9 36 27 73 31 62 34 65 47 47 8 -10 14
-24 14 -31z m80 -9 c23 -24 23 -25 5 -45 -40 -45 -93 -32 -74 18 11 30 28 52
38 52 4 0 18 -11 31 -25z"/>
<path d="M250 450 c0 -5 11 -10 25 -10 14 0 25 5 25 10 0 6 -11 10 -25 10 -14
0 -25 -4 -25 -10z"/>
<path d="M370 450 c0 -6 45 -10 115 -10 70 0 115 4 115 10 0 6 -45 10 -115 10
-70 0 -115 -4 -115 -10z"/>
<path d="M250 350 c0 -5 11 -10 25 -10 14 0 25 5 25 10 0 6 -11 10 -25 10 -14
0 -25 -4 -25 -10z"/>
<path d="M370 350 c0 -6 45 -10 115 -10 70 0 115 4 115 10 0 6 -45 10 -115 10
-70 0 -115 -4 -115 -10z"/>
<path d="M250 260 c0 -5 11 -10 25 -10 14 0 25 5 25 10 0 6 -11 10 -25 10 -14
0 -25 -4 -25 -10z"/>
</g>
</svg>
