<?xml version="1.0" standalone="no"?>
<!DOCTYPE svg PUBLIC "-//W3C//DTD SVG 20010904//EN"
 "http://www.w3.org/TR/2001/REC-SVG-20010904/DTD/svg10.dtd">
<svg version="1.0" xmlns="http://www.w3.org/2000/svg"
 width="100.000000pt" height="100.000000pt" viewBox="0 0 100.000000 100.000000"
 preserveAspectRatio="xMidYMid meet">

<g transform="translate(0.000000,100.000000) scale(0.100000,-0.100000)"
fill="#000000" stroke="none">
<path d="M257 795 c-130 -102 -237 -190 -237 -195 0 -16 19 -21 40 -10 19 10
20 7 22 -257 l3 -268 415 0 415 0 3 268 c2 264 3 267 22 257 21 -11 40 -6 40
10 0 9 -451 367 -473 376 -7 2 -120 -79 -250 -181z m442 -16 l181 -142 0 -268
0 -269 -380 0 -380 0 0 269 0 268 188 147 c103 80 192 144 198 142 6 -2 93
-68 193 -147z"/>
<path d="M535 686 c-16 -8 -91 -76 -167 -152 -146 -149 -158 -170 -144 -250 9
-47 73 -111 120 -120 80 -14 101 -2 253 149 95 94 146 152 154 175 43 129 -93
253 -216 198z m146 -62 c58 -56 50 -121 -26 -202 l-54 -57 -88 87 -88 88 44
44 c25 25 58 52 75 61 43 22 101 13 137 -21z m-191 -199 l84 -85 -54 -55 c-30
-30 -69 -62 -88 -71 -91 -43 -189 37 -167 137 6 27 117 159 134 159 3 0 44
-38 91 -85z"/>
<path d="M364 449 c-10 -17 13 -36 27 -22 12 12 4 33 -11 33 -5 0 -12 -5 -16
-11z"/>
<path d="M304 389 c-10 -17 13 -36 27 -22 12 12 4 33 -11 33 -5 0 -12 -5 -16
-11z"/>
<path d="M424 389 c-10 -17 13 -36 27 -22 12 12 4 33 -11 33 -5 0 -12 -5 -16
-11z"/>
<path d="M364 329 c-10 -17 13 -36 27 -22 12 12 4 33 -11 33 -5 0 -12 -5 -16
-11z"/>
<path d="M484 329 c-10 -17 13 -36 27 -22 12 12 4 33 -11 33 -5 0 -12 -5 -16
-11z"/>
<path d="M304 269 c-10 -17 13 -36 27 -22 12 12 4 33 -11 33 -5 0 -12 -5 -16
-11z"/>
<path d="M424 269 c-10 -17 13 -36 27 -22 12 12 4 33 -11 33 -5 0 -12 -5 -16
-11z"/>
</g>
</svg>
